<?xml version="1.0" standalone="no"?>
<!DOCTYPE svg PUBLIC "-//W3C//DTD SVG 20010904//EN"
 "http://www.w3.org/TR/2001/REC-SVG-20010904/DTD/svg10.dtd">
<svg version="1.0" xmlns="http://www.w3.org/2000/svg"
 width="24.000000pt" height="24.000000pt" viewBox="0 0 24.000000 24.000000"
 preserveAspectRatio="xMidYMid meet">

<g transform="translate(0.000000,24.000000) scale(0.100000,-0.100000)"
fill="#000000" stroke="none">
<path d="M37 233 c-4 -3 -7 -23 -7 -44 0 -21 -4 -41 -10 -44 -13 -8 -13 -68
-1 -81 5 -5 11 -20 13 -34 3 -24 5 -25 88 -25 83 0 85 1 88 25 2 14 8 29 13
34 12 13 12 73 -1 81 -5 3 -10 14 -10 23 0 9 -12 29 -27 44 -23 24 -34 28 -83
28 -31 0 -60 -3 -63 -7z m113 -28 c0 -20 5 -25 26 -25 16 0 24 -5 22 -12 -3
-9 -28 -13 -79 -13 l-74 0 -3 38 -3 37 55 0 c53 0 56 -1 56 -25z m-88 -74
c-10 -6 -10 -10 2 -20 8 -7 12 -19 9 -27 -6 -16 -43 -20 -43 -4 0 5 7 7 15 4
20 -8 19 6 -2 21 -19 14 -10 35 15 35 13 0 14 -2 4 -9z m47 -13 l8 -23 7 23
c4 12 12 22 17 22 12 0 -13 -62 -27 -67 -6 -2 -15 12 -21 32 -12 38 2 50 16
13z m84 12 c-26 -11 -31 -40 -7 -40 8 0 12 5 9 10 -3 6 -1 10 4 10 6 0 11 -9
11 -21 0 -15 -5 -20 -21 -17 -50 7 -45 69 5 67 21 0 21 0 -1 -9z m7 -95 c0
-25 -1 -25 -80 -25 -79 0 -80 0 -80 25 0 25 1 25 80 25 79 0 80 0 80 -25z"/>
</g>
</svg>
